STARTFONT 2.1
FONT -Monotype-Arial Narrow-Regular-I-Normal--10-100-75-75-P-43-iso8859-2
SIZE 10 75 75
FONTBOUNDINGBOX 11 13 -2 -3

STARTPROPERTIES 24
FOUNDRY "Monotype"
FAMILY_NAME "Arial Narrow"
WEIGHT_NAME "Regular"
SLANT "I"
SETWIDTH_NAME "Normal"
ADD_STYLE_NAME ""
PIXEL_SIZE 10
POINT_SIZE 100
RESOLUTION_X 75
RESOLUTION_Y 75
SPACING "P"
AVERAGE_WIDTH 43
CHARSET_REGISTRY "iso8859"
CHARSET_ENCODING "2"
FACE_NAME "Arial Narrow it ISO Latin2"
_DEC_DEVICE_FONTNAMES "PS=arialnarrow-italic-lat2"
COPYRIGHT "Copyright (c) 1994 Monotype Typography Ltd."
CAP_HEIGHT 9
X_HEIGHT 6
WEIGHT 10
QUAD_WIDTH 5
DEFAULT_CHAR 160
FONT_DESCENT 3
FONT_ASCENT 10
ENDPROPERTIES

CHARS 191

STARTCHAR space
ENCODING 32
SWIDTH 228 0
DWIDTH 2 0
BBX 0 0 0 0
BITMAP
ENDCHAR

STARTCHAR exclam
ENCODING 33
SWIDTH 228 0
DWIDTH 2 0
BBX 3 7 0 0
BITMAP
20
20
40
40
40
00
80
ENDCHAR

STARTCHAR quotedbl
ENCODING 34
SWIDTH 291 0
DWIDTH 3 0
BBX 3 3 0 4
BITMAP
A0
A0
A0
ENDCHAR

STARTCHAR numbersign
ENCODING 35
SWIDTH 456 0
DWIDTH 5 0
BBX 5 7 0 0
BITMAP
28
28
F8
50
F8
50
50
ENDCHAR

STARTCHAR dollar
ENCODING 36
SWIDTH 456 0
DWIDTH 5 0
BBX 5 9 0 -1
BITMAP
10
38
58
50
30
28
A8
70
20
ENDCHAR

STARTCHAR percent
ENCODING 37
SWIDTH 729 0
DWIDTH 7 0
BBX 7 8 0 -1
BITMAP
44
A4
A8
48
14
2A
4A
04
ENDCHAR

STARTCHAR ampersand
ENCODING 38
SWIDTH 547 0
DWIDTH 5 0
BBX 5 7 0 0
BITMAP
20
50
50
60
A8
B0
50
ENDCHAR

STARTCHAR quoteright
ENCODING 39
SWIDTH 182 0
DWIDTH 2 0
BBX 2 3 1 4
BITMAP
40
40
80
ENDCHAR

STARTCHAR parenleft
ENCODING 40
SWIDTH 273 0
DWIDTH 3 0
BBX 3 9 1 -2
BITMAP
20
40
40
40
80
80
80
80
40
ENDCHAR

STARTCHAR parenright
ENCODING 41
SWIDTH 273 0
DWIDTH 3 0
BBX 3 9 0 -2
BITMAP
40
20
20
20
20
40
40
40
80
ENDCHAR

STARTCHAR asterisk
ENCODING 42
SWIDTH 319 0
DWIDTH 3 0
BBX 3 3 0 4
BITMAP
40
E0
40
ENDCHAR

STARTCHAR plus
ENCODING 43
SWIDTH 479 0
DWIDTH 5 0
BBX 5 5 0 1
BITMAP
20
20
F8
20
20
ENDCHAR

STARTCHAR comma
ENCODING 44
SWIDTH 228 0
DWIDTH 2 0
BBX 2 3 0 -2
BITMAP
40
40
80
ENDCHAR

STARTCHAR minus
ENCODING 45
SWIDTH 479 0
DWIDTH 5 0
BBX 5 1 0 3
BITMAP
F8
ENDCHAR

STARTCHAR period
ENCODING 46
SWIDTH 228 0
DWIDTH 2 0
BBX 1 1 1 0
BITMAP
80
ENDCHAR

STARTCHAR slash
ENCODING 47
SWIDTH 228 0
DWIDTH 2 0
BBX 3 8 0 -1
BITMAP
20
20
20
40
40
80
80
80
ENDCHAR

STARTCHAR zero
ENCODING 48
SWIDTH 456 0
DWIDTH 5 0
BBX 4 7 1 0
BITMAP
20
50
90
90
90
A0
40
ENDCHAR

STARTCHAR one
ENCODING 49
SWIDTH 456 0
DWIDTH 5 0
BBX 3 7 1 0
BITMAP
20
60
A0
20
40
40
40
ENDCHAR

STARTCHAR two
ENCODING 50
SWIDTH 456 0
DWIDTH 5 0
BBX 5 7 0 0
BITMAP
30
48
08
10
20
40
F0
ENDCHAR

STARTCHAR three
ENCODING 51
SWIDTH 456 0
DWIDTH 5 0
BBX 5 7 0 0
BITMAP
30
48
08
30
10
90
60
ENDCHAR

STARTCHAR four
ENCODING 52
SWIDTH 456 0
DWIDTH 5 0
BBX 5 7 0 0
BITMAP
08
18
28
50
F8
10
10
ENDCHAR

STARTCHAR five
ENCODING 53
SWIDTH 456 0
DWIDTH 5 0
BBX 5 7 0 0
BITMAP
38
20
50
48
08
90
60
ENDCHAR

STARTCHAR six
ENCODING 54
SWIDTH 456 0
DWIDTH 5 0
BBX 5 7 1 0
BITMAP
30
48
60
90
90
90
60
ENDCHAR

STARTCHAR seven
ENCODING 55
SWIDTH 456 0
DWIDTH 5 0
BBX 4 7 2 0
BITMAP
F0
20
20
40
40
80
80
ENDCHAR

STARTCHAR eight
ENCODING 56
SWIDTH 456 0
DWIDTH 5 0
BBX 5 7 1 0
BITMAP
30
48
48
70
90
90
60
ENDCHAR

STARTCHAR nine
ENCODING 57
SWIDTH 456 0
DWIDTH 5 0
BBX 5 7 0 0
BITMAP
30
48
48
48
30
90
60
ENDCHAR

STARTCHAR colon
ENCODING 58
SWIDTH 228 0
DWIDTH 2 0
BBX 2 5 0 0
BITMAP
40
00
00
00
80
ENDCHAR

STARTCHAR semicolon
ENCODING 59
SWIDTH 228 0
DWIDTH 2 0
BBX 2 7 0 -2
BITMAP
40
00
00
00
40
40
80
ENDCHAR

STARTCHAR less
ENCODING 60
SWIDTH 479 0
DWIDTH 5 0
BBX 4 5 1 1
BITMAP
10
60
80
60
10
ENDCHAR

STARTCHAR equal
ENCODING 61
SWIDTH 479 0
DWIDTH 5 0
BBX 5 3 0 2
BITMAP
F8
00
F8
ENDCHAR

STARTCHAR greater
ENCODING 62
SWIDTH 479 0
DWIDTH 5 0
BBX 4 5 1 1
BITMAP
80
60
10
60
80
ENDCHAR

STARTCHAR question
ENCODING 63
SWIDTH 456 0
DWIDTH 5 0
BBX 4 7 1 0
BITMAP
60
90
10
20
40
00
80
ENDCHAR

STARTCHAR at
ENCODING 64
SWIDTH 832 0
DWIDTH 8 0
BBX 8 9 0 -2
BITMAP
1C
62
5D
A5
A5
AE
55
63
1C
ENDCHAR

STARTCHAR A
ENCODING 65
SWIDTH 547 0
DWIDTH 5 0
BBX 5 7 0 0
BITMAP
10
10
28
48
78
88
88
ENDCHAR

STARTCHAR B
ENCODING 66
SWIDTH 547 0
DWIDTH 5 0
BBX 5 7 1 0
BITMAP
70
48
48
F0
90
90
E0
ENDCHAR

STARTCHAR C
ENCODING 67
SWIDTH 592 0
DWIDTH 6 0
BBX 5 7 1 0
BITMAP
30
48
80
80
88
90
60
ENDCHAR

STARTCHAR D
ENCODING 68
SWIDTH 592 0
DWIDTH 6 0
BBX 5 7 1 0
BITMAP
70
48
48
88
88
90
E0
ENDCHAR

STARTCHAR E
ENCODING 69
SWIDTH 547 0
DWIDTH 6 0
BBX 5 7 1 0
BITMAP
78
40
40
F0
80
80
F0
ENDCHAR

STARTCHAR F
ENCODING 70
SWIDTH 501 0
DWIDTH 5 0
BBX 5 7 1 0
BITMAP
78
40
40
F0
80
80
80
ENDCHAR

STARTCHAR G
ENCODING 71
SWIDTH 638 0
DWIDTH 6 0
BBX 6 7 1 0
BITMAP
38
44
80
98
88
88
70
ENDCHAR

STARTCHAR H
ENCODING 72
SWIDTH 592 0
DWIDTH 6 0
BBX 5 7 1 0
BITMAP
48
48
48
F8
90
90
90
ENDCHAR

STARTCHAR I
ENCODING 73
SWIDTH 228 0
DWIDTH 3 0
BBX 2 7 1 0
BITMAP
40
40
40
80
80
80
80
ENDCHAR

STARTCHAR J
ENCODING 74
SWIDTH 410 0
DWIDTH 4 0
BBX 4 7 0 0
BITMAP
10
10
10
20
20
A0
40
ENDCHAR

STARTCHAR K
ENCODING 75
SWIDTH 547 0
DWIDTH 5 0
BBX 5 7 1 0
BITMAP
48
50
60
E0
A0
90
90
ENDCHAR

STARTCHAR L
ENCODING 76
SWIDTH 456 0
DWIDTH 5 0
BBX 4 7 1 0
BITMAP
40
40
40
80
80
80
F0
ENDCHAR

STARTCHAR M
ENCODING 77
SWIDTH 683 0
DWIDTH 7 0
BBX 6 7 1 0
BITMAP
44
44
6C
B8
A8
A8
A8
ENDCHAR

STARTCHAR N
ENCODING 78
SWIDTH 592 0
DWIDTH 7 0
BBX 6 7 1 0
BITMAP
44
64
64
58
98
88
88
ENDCHAR

STARTCHAR O
ENCODING 79
SWIDTH 638 0
DWIDTH 6 0
BBX 5 7 1 0
BITMAP
30
48
88
88
88
90
60
ENDCHAR

STARTCHAR P
ENCODING 80
SWIDTH 547 0
DWIDTH 5 0
BBX 5 7 1 0
BITMAP
70
48
48
70
80
80
80
ENDCHAR

STARTCHAR Q
ENCODING 81
SWIDTH 638 0
DWIDTH 6 0
BBX 5 7 1 0
BITMAP
30
48
88
88
A8
90
68
ENDCHAR

STARTCHAR R
ENCODING 82
SWIDTH 592 0
DWIDTH 6 0
BBX 5 7 1 0
BITMAP
70
48
48
70
90
88
88
ENDCHAR

STARTCHAR S
ENCODING 83
SWIDTH 547 0
DWIDTH 4 0
BBX 5 7 0 0
BITMAP
30
48
40
20
10
90
60
ENDCHAR

STARTCHAR T
ENCODING 84
SWIDTH 501 0
DWIDTH 5 0
BBX 5 7 1 0
BITMAP
F8
20
20
20
40
40
40
ENDCHAR

STARTCHAR U
ENCODING 85
SWIDTH 592 0
DWIDTH 6 0
BBX 6 7 1 0
BITMAP
44
44
48
88
88
90
60
ENDCHAR

STARTCHAR V
ENCODING 86
SWIDTH 547 0
DWIDTH 5 0
BBX 5 7 1 0
BITMAP
88
88
90
50
60
60
40
ENDCHAR

STARTCHAR W
ENCODING 87
SWIDTH 774 0
DWIDTH 8 0
BBX 8 7 1 0
BITMAP
91
92
AA
AC
CC
C8
88
ENDCHAR

STARTCHAR X
ENCODING 88
SWIDTH 547 0
DWIDTH 5 0
BBX 6 7 0 0
BITMAP
44
48
30
30
28
48
88
ENDCHAR

STARTCHAR Y
ENCODING 89
SWIDTH 547 0
DWIDTH 5 0
BBX 5 7 1 0
BITMAP
88
88
50
20
20
40
40
ENDCHAR

STARTCHAR Z
ENCODING 90
SWIDTH 501 0
DWIDTH 5 0
BBX 5 7 1 0
BITMAP
78
08
10
20
40
80
F0
ENDCHAR

STARTCHAR bracketleft
ENCODING 91
SWIDTH 228 0
DWIDTH 2 0
BBX 3 9 0 -2
BITMAP
60
40
40
40
80
80
80
80
C0
ENDCHAR

STARTCHAR backslash
ENCODING 92
SWIDTH 228 0
DWIDTH 2 0
BBX 3 8 0 -1
BITMAP
80
80
80
40
40
20
20
20
ENDCHAR

STARTCHAR bracketright
ENCODING 93
SWIDTH 228 0
DWIDTH 2 0
BBX 3 9 0 -2
BITMAP
60
20
20
20
20
40
40
40
C0
ENDCHAR

STARTCHAR asciicircum
ENCODING 94
SWIDTH 385 0
DWIDTH 4 0
BBX 3 4 1 3
BITMAP
40
40
A0
A0
ENDCHAR

STARTCHAR underscore
ENCODING 95
SWIDTH 456 0
DWIDTH 5 0
BBX 5 1 0 -2
BITMAP
F8
ENDCHAR

STARTCHAR quoteleft
ENCODING 96
SWIDTH 182 0
DWIDTH 2 0
BBX 2 3 1 4
BITMAP
40
80
80
ENDCHAR

STARTCHAR a
ENCODING 97
SWIDTH 456 0
DWIDTH 4 0
BBX 4 5 0 0
BITMAP
70
10
70
A0
D0
ENDCHAR

STARTCHAR b
ENCODING 98
SWIDTH 456 0
DWIDTH 5 0
BBX 4 7 1 0
BITMAP
40
40
B0
D0
90
A0
C0
ENDCHAR

STARTCHAR c
ENCODING 99
SWIDTH 410 0
DWIDTH 4 0
BBX 4 5 1 0
BITMAP
20
50
80
A0
C0
ENDCHAR

STARTCHAR d
ENCODING 100
SWIDTH 456 0
DWIDTH 5 0
BBX 5 7 1 0
BITMAP
08
08
28
50
90
B0
50
ENDCHAR

STARTCHAR e
ENCODING 101
SWIDTH 456 0
DWIDTH 5 0
BBX 4 5 1 0
BITMAP
20
50
F0
80
E0
ENDCHAR

STARTCHAR f
ENCODING 102
SWIDTH 228 0
DWIDTH 3 0
BBX 3 7 1 0
BITMAP
20
40
E0
40
80
80
80
ENDCHAR

STARTCHAR g
ENCODING 103
SWIDTH 456 0
DWIDTH 5 0
BBX 5 7 0 -2
BITMAP
28
58
88
B0
50
10
E0
ENDCHAR

STARTCHAR h
ENCODING 104
SWIDTH 456 0
DWIDTH 5 0
BBX 4 7 1 0
BITMAP
40
40
70
50
90
A0
A0
ENDCHAR

STARTCHAR i
ENCODING 105
SWIDTH 182 0
DWIDTH 3 0
BBX 2 7 1 0
BITMAP
40
00
40
40
80
80
80
ENDCHAR

STARTCHAR j
ENCODING 106
SWIDTH 182 0
DWIDTH 3 0
BBX 3 9 0 -2
BITMAP
20
00
20
20
40
40
40
40
80
ENDCHAR

STARTCHAR k
ENCODING 107
SWIDTH 410 0
DWIDTH 4 0
BBX 4 7 1 0
BITMAP
40
40
50
E0
A0
A0
90
ENDCHAR

STARTCHAR l
ENCODING 108
SWIDTH 182 0
DWIDTH 3 0
BBX 2 7 1 0
BITMAP
40
40
40
80
80
80
80
ENDCHAR

STARTCHAR m
ENCODING 109
SWIDTH 683 0
DWIDTH 7 0
BBX 6 5 1 0
BITMAP
54
7C
54
A8
A8
ENDCHAR

STARTCHAR n
ENCODING 110
SWIDTH 456 0
DWIDTH 5 0
BBX 4 5 1 0
BITMAP
50
70
50
A0
A0
ENDCHAR

STARTCHAR o
ENCODING 111
SWIDTH 456 0
DWIDTH 5 0
BBX 4 5 1 0
BITMAP
30
50
90
A0
C0
ENDCHAR

STARTCHAR p
ENCODING 112
SWIDTH 456 0
DWIDTH 5 0
BBX 5 7 0 -2
BITMAP
50
68
48
50
A0
80
80
ENDCHAR

STARTCHAR q
ENCODING 113
SWIDTH 456 0
DWIDTH 5 0
BBX 4 7 1 -2
BITMAP
30
50
90
A0
60
20
20
ENDCHAR

STARTCHAR r
ENCODING 114
SWIDTH 273 0
DWIDTH 3 0
BBX 3 5 1 0
BITMAP
60
40
80
80
80
ENDCHAR

STARTCHAR s
ENCODING 115
SWIDTH 410 0
DWIDTH 3 0
BBX 4 5 0 0
BITMAP
30
40
20
20
C0
ENDCHAR

STARTCHAR t
ENCODING 116
SWIDTH 228 0
DWIDTH 3 0
BBX 3 7 1 0
BITMAP
40
40
E0
40
80
80
C0
ENDCHAR

STARTCHAR u
ENCODING 117
SWIDTH 456 0
DWIDTH 5 0
BBX 5 5 1 0
BITMAP
48
48
90
B0
D0
ENDCHAR

STARTCHAR v
ENCODING 118
SWIDTH 410 0
DWIDTH 4 0
BBX 4 5 1 0
BITMAP
90
A0
A0
C0
80
ENDCHAR

STARTCHAR w
ENCODING 119
SWIDTH 592 0
DWIDTH 6 0
BBX 6 5 1 0
BITMAP
A4
A8
E8
B0
90
ENDCHAR

STARTCHAR x
ENCODING 120
SWIDTH 410 0
DWIDTH 4 0
BBX 5 5 0 0
BITMAP
48
50
20
50
90
ENDCHAR

STARTCHAR y
ENCODING 121
SWIDTH 410 0
DWIDTH 4 0
BBX 5 8 0 -3
BITMAP
48
50
50
60
60
40
40
80
ENDCHAR

STARTCHAR z
ENCODING 122
SWIDTH 410 0
DWIDTH 4 0
BBX 4 5 0 0
BITMAP
70
10
20
40
E0
ENDCHAR

STARTCHAR braceleft
ENCODING 123
SWIDTH 274 0
DWIDTH 3 0
BBX 3 9 1 -2
BITMAP
20
40
40
C0
40
80
80
80
40
ENDCHAR

STARTCHAR bar
ENCODING 124
SWIDTH 213 0
DWIDTH 2 0
BBX 1 9 1 -2
BITMAP
80
80
80
80
80
80
80
80
80
ENDCHAR

STARTCHAR braceright
ENCODING 125
SWIDTH 274 0
DWIDTH 3 0
BBX 3 9 0 -2
BITMAP
40
20
20
40
20
40
40
40
80
ENDCHAR

STARTCHAR asciitilde
ENCODING 126
SWIDTH 479 0
DWIDTH 5 0
BBX 4 2 1 2
BITMAP
50
A0
ENDCHAR

STARTCHAR space
ENCODING 160
SWIDTH 228 0
DWIDTH 3 0
BBX 0 0 0 0
BITMAP
ENDCHAR

STARTCHAR Aogonek
ENCODING 161
SWIDTH 547 0
DWIDTH 5 0
BBX 6 9 0 -2
BITMAP
10
10
28
48
78
88
88
08
0C
ENDCHAR

STARTCHAR breve
ENCODING 162
SWIDTH 273 0
DWIDTH 3 0
BBX 3 2 0 5
BITMAP
A0
40
ENDCHAR

STARTCHAR Lslash
ENCODING 163
SWIDTH 456 0
DWIDTH 5 0
BBX 5 7 0 0
BITMAP
20
20
30
40
C0
40
78
ENDCHAR

STARTCHAR currency
ENCODING 164
SWIDTH 456 0
DWIDTH 5 0
BBX 5 5 0 2
BITMAP
88
70
50
70
88
ENDCHAR

STARTCHAR Lcaron
ENCODING 165
SWIDTH 456 0
DWIDTH 5 0
BBX 4 7 1 0
BITMAP
50
50
60
80
80
80
F0
ENDCHAR

STARTCHAR Sacute
ENCODING 166
SWIDTH 547 0
DWIDTH 4 0
BBX 5 10 0 0
BITMAP
08
10
00
30
48
40
20
10
90
60
ENDCHAR

STARTCHAR section
ENCODING 167
SWIDTH 456 0
DWIDTH 5 0
BBX 5 9 0 -2
BITMAP
18
28
20
50
48
28
10
90
60
ENDCHAR

STARTCHAR dieresis
ENCODING 168
SWIDTH 273 0
DWIDTH 3 0
BBX 3 1 0 6
BITMAP
A0
ENDCHAR

STARTCHAR Scaron
ENCODING 169
SWIDTH 547 0
DWIDTH 4 0
BBX 5 10 0 0
BITMAP
28
10
00
30
48
40
20
10
90
60
ENDCHAR

STARTCHAR Scommaaccent
ENCODING 170
SWIDTH 547 0
DWIDTH 4 0
BBX 5 10 0 -3
BITMAP
30
48
40
20
10
90
60
00
40
80
ENDCHAR

STARTCHAR Tcaron
ENCODING 171
SWIDTH 501 0
DWIDTH 5 0
BBX 5 10 1 0
BITMAP
28
10
00
F8
20
20
20
40
40
40
ENDCHAR

STARTCHAR Zacute
ENCODING 172
SWIDTH 501 0
DWIDTH 5 0
BBX 5 10 1 0
BITMAP
08
10
00
78
08
10
20
40
80
F0
ENDCHAR

STARTCHAR hyphen
ENCODING 173
SWIDTH 273 0
DWIDTH 3 0
BBX 3 1 0 4
BITMAP
E0
ENDCHAR

STARTCHAR Zcaron
ENCODING 174
SWIDTH 501 0
DWIDTH 5 0
BBX 5 10 1 0
BITMAP
28
10
00
78
08
10
20
40
80
F0
ENDCHAR

STARTCHAR Zdotaccent
ENCODING 175
SWIDTH 501 0
DWIDTH 5 0
BBX 5 9 1 0
BITMAP
10
00
78
08
10
20
40
80
F0
ENDCHAR

STARTCHAR degree
ENCODING 176
SWIDTH 328 0
DWIDTH 3 0
BBX 3 3 0 4
BITMAP
40
A0
40
ENDCHAR

STARTCHAR aogonek
ENCODING 177
SWIDTH 456 0
DWIDTH 4 0
BBX 5 7 0 -2
BITMAP
70
10
70
A0
D0
10
18
ENDCHAR

STARTCHAR ogonek
ENCODING 178
SWIDTH 273 0
DWIDTH 3 0
BBX 2 2 1 -2
BITMAP
80
C0
ENDCHAR

STARTCHAR lslash
ENCODING 179
SWIDTH 182 0
DWIDTH 3 0
BBX 4 7 0 0
BITMAP
20
20
30
C0
40
40
40
ENDCHAR

STARTCHAR acute
ENCODING 180
SWIDTH 273 0
DWIDTH 3 0
BBX 2 2 1 5
BITMAP
40
80
ENDCHAR

STARTCHAR lcaron
ENCODING 181
SWIDTH 231 0
DWIDTH 3 0
BBX 4 7 1 0
BITMAP
50
50
60
80
80
80
80
ENDCHAR

STARTCHAR sacute
ENCODING 182
SWIDTH 410 0
DWIDTH 3 0
BBX 4 8 0 0
BITMAP
10
20
00
30
40
20
20
C0
ENDCHAR

STARTCHAR caron
ENCODING 183
SWIDTH 273 0
DWIDTH 3 0
BBX 3 2 0 5
BITMAP
A0
40
ENDCHAR

STARTCHAR commaaccent
ENCODING 184
SWIDTH 333 0
DWIDTH 3 0
BBX 2 2 0 -3
BITMAP
40
80
ENDCHAR

STARTCHAR scaron
ENCODING 185
SWIDTH 410 0
DWIDTH 3 0
BBX 5 8 0 0
BITMAP
28
10
00
30
40
20
20
C0
ENDCHAR

STARTCHAR scommaaccent
ENCODING 186
SWIDTH 410 0
DWIDTH 3 0
BBX 4 8 0 -3
BITMAP
30
40
20
20
C0
00
40
80
ENDCHAR

STARTCHAR tcaron
ENCODING 187
SWIDTH 290 0
DWIDTH 3 0
BBX 4 7 1 0
BITMAP
50
50
E0
40
80
80
C0
ENDCHAR

STARTCHAR zacute
ENCODING 188
SWIDTH 410 0
DWIDTH 4 0
BBX 4 8 0 0
BITMAP
10
20
00
70
10
20
40
E0
ENDCHAR

STARTCHAR hungarumlaut
ENCODING 189
SWIDTH 273 0
DWIDTH 3 0
BBX 4 2 0 5
BITMAP
50
A0
ENDCHAR

STARTCHAR zcaron
ENCODING 190
SWIDTH 410 0
DWIDTH 4 0
BBX 4 8 0 0
BITMAP
50
20
00
70
10
20
40
E0
ENDCHAR

STARTCHAR zdotaccent
ENCODING 191
SWIDTH 410 0
DWIDTH 4 0
BBX 4 7 0 0
BITMAP
20
00
70
10
20
40
E0
ENDCHAR

STARTCHAR Racute
ENCODING 192
SWIDTH 592 0
DWIDTH 6 0
BBX 5 10 1 0
BITMAP
08
10
00
70
48
48
70
90
88
88
ENDCHAR

STARTCHAR Aacute
ENCODING 193
SWIDTH 547 0
DWIDTH 5 0
BBX 5 10 0 0
BITMAP
08
10
00
10
10
28
48
78
88
88
ENDCHAR

STARTCHAR Acircumflex
ENCODING 194
SWIDTH 547 0
DWIDTH 5 0
BBX 5 9 0 0
BITMAP
10
28
10
10
28
48
78
88
88
ENDCHAR

STARTCHAR Abreve
ENCODING 195
SWIDTH 547 0
DWIDTH 5 0
BBX 5 10 0 0
BITMAP
28
10
00
10
10
28
48
78
88
88
ENDCHAR

STARTCHAR Adieresis
ENCODING 196
SWIDTH 547 0
DWIDTH 5 0
BBX 5 9 0 0
BITMAP
28
00
10
10
28
48
78
88
88
ENDCHAR

STARTCHAR Lacute
ENCODING 197
SWIDTH 456 0
DWIDTH 5 0
BBX 4 10 1 0
BITMAP
10
20
00
40
40
40
80
80
80
F0
ENDCHAR

STARTCHAR Cacute
ENCODING 198
SWIDTH 592 0
DWIDTH 6 0
BBX 5 10 1 0
BITMAP
08
10
00
30
48
80
80
88
90
60
ENDCHAR

STARTCHAR Ccedilla
ENCODING 199
SWIDTH 592 0
DWIDTH 6 0
BBX 5 10 1 -3
BITMAP
30
48
80
80
88
90
60
20
10
60
ENDCHAR

STARTCHAR Ccaron
ENCODING 200
SWIDTH 592 0
DWIDTH 6 0
BBX 5 10 1 0
BITMAP
28
10
00
30
48
80
80
88
90
60
ENDCHAR

STARTCHAR Eacute
ENCODING 201
SWIDTH 547 0
DWIDTH 6 0
BBX 5 10 1 0
BITMAP
08
10
00
78
40
40
F0
80
80
F0
ENDCHAR

STARTCHAR Eogonek
ENCODING 202
SWIDTH 547 0
DWIDTH 6 0
BBX 5 9 1 -2
BITMAP
78
40
40
F0
80
80
F0
10
18
ENDCHAR

STARTCHAR Edieresis
ENCODING 203
SWIDTH 547 0
DWIDTH 6 0
BBX 5 9 1 0
BITMAP
48
00
78
40
40
F0
80
80
F0
ENDCHAR

STARTCHAR Ecaron
ENCODING 204
SWIDTH 547 0
DWIDTH 6 0
BBX 5 10 1 0
BITMAP
28
10
00
78
40
40
F0
80
80
F0
ENDCHAR

STARTCHAR Iacute
ENCODING 205
SWIDTH 228 0
DWIDTH 3 0
BBX 3 10 1 0
BITMAP
20
40
00
40
40
40
80
80
80
80
ENDCHAR

STARTCHAR Icircumflex
ENCODING 206
SWIDTH 228 0
DWIDTH 3 0
BBX 3 10 1 0
BITMAP
40
A0
00
40
40
40
80
80
80
80
ENDCHAR

STARTCHAR Dcaron
ENCODING 207
SWIDTH 592 0
DWIDTH 6 0
BBX 5 10 1 0
BITMAP
28
10
00
70
48
48
88
88
90
E0
ENDCHAR

STARTCHAR Dcroat
ENCODING 208
SWIDTH 592 0
DWIDTH 6 0
BBX 6 7 0 0
BITMAP
38
24
24
F4
44
48
70
ENDCHAR

STARTCHAR Nacute
ENCODING 209
SWIDTH 592 0
DWIDTH 7 0
BBX 6 10 1 0
BITMAP
04
08
00
44
64
64
58
98
88
88
ENDCHAR

STARTCHAR Ncaron
ENCODING 210
SWIDTH 592 0
DWIDTH 7 0
BBX 6 10 1 0
BITMAP
14
08
00
44
64
64
58
98
88
88
ENDCHAR

STARTCHAR Oacute
ENCODING 211
SWIDTH 638 0
DWIDTH 6 0
BBX 5 10 1 0
BITMAP
08
10
00
30
48
88
88
88
90
60
ENDCHAR

STARTCHAR Ocircumflex
ENCODING 212
SWIDTH 638 0
DWIDTH 6 0
BBX 5 10 1 0
BITMAP
10
28
00
30
48
88
88
88
90
60
ENDCHAR

STARTCHAR Ohungarumlaut
ENCODING 213
SWIDTH 638 0
DWIDTH 6 0
BBX 6 10 1 0
BITMAP
14
28
00
30
48
88
88
88
90
60
ENDCHAR

STARTCHAR Odieresis
ENCODING 214
SWIDTH 638 0
DWIDTH 6 0
BBX 6 9 1 0
BITMAP
24
00
30
48
88
88
88
90
60
ENDCHAR

STARTCHAR multiply
ENCODING 215
SWIDTH 479 0
DWIDTH 5 0
BBX 5 5 0 2
BITMAP
88
50
20
50
88
ENDCHAR

STARTCHAR Rcaron
ENCODING 216
SWIDTH 592 0
DWIDTH 6 0
BBX 5 10 1 0
BITMAP
28
10
00
70
48
48
70
90
88
88
ENDCHAR

STARTCHAR Uring
ENCODING 217
SWIDTH 592 0
DWIDTH 6 0
BBX 6 10 1 0
BITMAP
18
24
18
44
44
48
88
88
90
60
ENDCHAR

STARTCHAR Uacute
ENCODING 218
SWIDTH 592 0
DWIDTH 6 0
BBX 6 10 1 0
BITMAP
04
08
00
44
44
48
88
88
90
60
ENDCHAR

STARTCHAR Uhungarumlaut
ENCODING 219
SWIDTH 592 0
DWIDTH 6 0
BBX 7 10 1 0
BITMAP
0A
14
00
44
44
48
88
88
90
60
ENDCHAR

STARTCHAR Udieresis
ENCODING 220
SWIDTH 592 0
DWIDTH 6 0
BBX 6 9 1 0
BITMAP
28
00
44
44
48
88
88
90
60
ENDCHAR

STARTCHAR Yacute
ENCODING 221
SWIDTH 547 0
DWIDTH 5 0
BBX 5 10 1 0
BITMAP
10
20
00
88
88
50
20
20
40
40
ENDCHAR

STARTCHAR Tcommaaccent
ENCODING 222
SWIDTH 501 0
DWIDTH 5 0
BBX 5 10 1 -3
BITMAP
F8
20
20
20
40
40
40
00
40
80
ENDCHAR

STARTCHAR germandbls
ENCODING 223
SWIDTH 501 0
DWIDTH 5 0
BBX 5 7 0 0
BITMAP
20
50
50
B0
88
A8
90
ENDCHAR

STARTCHAR racute
ENCODING 224
SWIDTH 273 0
DWIDTH 3 0
BBX 4 8 1 0
BITMAP
10
20
00
60
40
80
80
80
ENDCHAR

STARTCHAR aacute
ENCODING 225
SWIDTH 456 0
DWIDTH 4 0
BBX 4 8 0 0
BITMAP
10
20
00
70
10
70
A0
D0
ENDCHAR

STARTCHAR acircumflex
ENCODING 226
SWIDTH 456 0
DWIDTH 4 0
BBX 4 8 0 0
BITMAP
20
50
00
70
10
70
A0
D0
ENDCHAR

STARTCHAR abreve
ENCODING 227
SWIDTH 456 0
DWIDTH 4 0
BBX 5 8 0 0
BITMAP
48
30
00
70
10
70
A0
D0
ENDCHAR

STARTCHAR adieresis
ENCODING 228
SWIDTH 456 0
DWIDTH 4 0
BBX 4 7 0 0
BITMAP
50
00
70
10
70
A0
D0
ENDCHAR

STARTCHAR lacute
ENCODING 229
SWIDTH 182 0
DWIDTH 3 0
BBX 3 10 1 0
BITMAP
20
40
00
40
40
40
80
80
80
80
ENDCHAR

STARTCHAR cacute
ENCODING 230
SWIDTH 410 0
DWIDTH 4 0
BBX 4 8 1 0
BITMAP
10
20
00
20
50
80
A0
C0
ENDCHAR

STARTCHAR ccedilla
ENCODING 231
SWIDTH 410 0
DWIDTH 4 0
BBX 4 8 1 -3
BITMAP
20
50
80
A0
C0
40
20
C0
ENDCHAR

STARTCHAR ccaron
ENCODING 232
SWIDTH 410 0
DWIDTH 4 0
BBX 4 8 1 0
BITMAP
50
20
00
20
50
80
A0
C0
ENDCHAR

STARTCHAR eacute
ENCODING 233
SWIDTH 456 0
DWIDTH 5 0
BBX 4 8 1 0
BITMAP
10
20
00
20
50
F0
80
E0
ENDCHAR

STARTCHAR eogonek
ENCODING 234
SWIDTH 456 0
DWIDTH 5 0
BBX 4 7 1 -2
BITMAP
20
50
F0
80
E0
40
60
ENDCHAR

STARTCHAR edieresis
ENCODING 235
SWIDTH 456 0
DWIDTH 5 0
BBX 4 7 1 0
BITMAP
50
00
20
50
F0
80
E0
ENDCHAR

STARTCHAR ecaron
ENCODING 236
SWIDTH 456 0
DWIDTH 5 0
BBX 4 8 1 0
BITMAP
50
20
00
20
50
F0
80
E0
ENDCHAR

STARTCHAR iacute
ENCODING 237
SWIDTH 228 0
DWIDTH 3 0
BBX 3 8 1 0
BITMAP
20
40
00
40
40
80
80
80
ENDCHAR

STARTCHAR icircumflex
ENCODING 238
SWIDTH 228 0
DWIDTH 3 0
BBX 4 8 1 0
BITMAP
20
50
00
40
40
80
80
80
ENDCHAR

STARTCHAR dcaron
ENCODING 239
SWIDTH 512 0
DWIDTH 6 0
BBX 7 7 1 0
BITMAP
0A
0A
2C
50
90
B0
50
ENDCHAR

STARTCHAR dcroat
ENCODING 240
SWIDTH 456 0
DWIDTH 5 0
BBX 6 8 1 0
BITMAP
08
3C
08
28
50
90
B0
50
ENDCHAR

STARTCHAR nacute
ENCODING 241
SWIDTH 456 0
DWIDTH 5 0
BBX 5 8 1 0
BITMAP
08
10
00
50
70
50
A0
A0
ENDCHAR

STARTCHAR ncaron
ENCODING 242
SWIDTH 456 0
DWIDTH 5 0
BBX 5 8 1 0
BITMAP
28
10
00
50
70
50
A0
A0
ENDCHAR

STARTCHAR oacute
ENCODING 243
SWIDTH 456 0
DWIDTH 5 0
BBX 5 8 1 0
BITMAP
08
10
00
30
50
90
A0
C0
ENDCHAR

STARTCHAR ocircumflex
ENCODING 244
SWIDTH 456 0
DWIDTH 5 0
BBX 5 8 1 0
BITMAP
10
28
00
30
50
90
A0
C0
ENDCHAR

STARTCHAR ohungarumlaut
ENCODING 245
SWIDTH 456 0
DWIDTH 5 0
BBX 6 8 1 0
BITMAP
14
28
00
30
50
90
A0
C0
ENDCHAR

STARTCHAR odieresis
ENCODING 246
SWIDTH 456 0
DWIDTH 5 0
BBX 5 7 1 0
BITMAP
28
00
30
50
90
A0
C0
ENDCHAR

STARTCHAR divide
ENCODING 247
SWIDTH 479 0
DWIDTH 5 0
BBX 3 5 1 1
BITMAP
40
00
E0
00
40
ENDCHAR

STARTCHAR rcaron
ENCODING 248
SWIDTH 273 0
DWIDTH 3 0
BBX 4 8 1 0
BITMAP
50
20
00
60
40
80
80
80
ENDCHAR

STARTCHAR uring
ENCODING 249
SWIDTH 456 0
DWIDTH 5 0
BBX 5 9 1 0
BITMAP
10
28
10
00
48
48
90
B0
D0
ENDCHAR

STARTCHAR uacute
ENCODING 250
SWIDTH 456 0
DWIDTH 5 0
BBX 5 8 1 0
BITMAP
10
20
00
48
48
90
B0
D0
ENDCHAR

STARTCHAR uhungarumlaut
ENCODING 251
SWIDTH 456 0
DWIDTH 5 0
BBX 6 8 1 0
BITMAP
14
28
00
48
48
90
B0
D0
ENDCHAR

STARTCHAR udieresis
ENCODING 252
SWIDTH 456 0
DWIDTH 5 0
BBX 5 7 1 0
BITMAP
28
00
48
48
90
B0
D0
ENDCHAR

STARTCHAR yacute
ENCODING 253
SWIDTH 410 0
DWIDTH 4 0
BBX 5 11 0 -3
BITMAP
08
10
00
48
50
50
60
60
40
40
80
ENDCHAR

STARTCHAR tcommaaccent
ENCODING 254
SWIDTH 228 0
DWIDTH 3 0
BBX 4 10 0 -3
BITMAP
20
20
70
20
40
40
60
00
40
80
ENDCHAR

STARTCHAR dotaccent
ENCODING 255
SWIDTH 273 0
DWIDTH 3 0
BBX 1 1 1 6
BITMAP
80
ENDCHAR
ENDFONT
